<svg xmlns="http://www.w3.org/2000/svg" viewBox="0 0 24 24" fill="#00ff99">
    <path d="M12,2C6.48,2,2,6.48,2,12c0,1.8,0.54,3.48,1.46,4.9l-1.3,4.1l4.24-1.21C7.84,20.55,9.84,21,12,21c5.52,0,10-4.48,10-10 S17.52,2,12,2z M12,19c-1.63,0-3.15-0.42-4.46-1.15l-2.61,0.74l0.8-2.52C4.66,14.86,4,13.5,4,12c0-4.41,3.59-8,8-8s8,3.59,8,8 S16.41,19,12,19z M10.5,9.5C10.5,10.33,9.83,11,9,11S7.5,10.33,7.5,9.5S8.17,8,9,8S10.5,8.67,10.5,9.5z M16.5,9.5 C16.5,10.33,15.83,11,15,11s-1.5-0.67-1.5-1.5S14.17,8,15,8S16.5,8.67,16.5,9.5z M12,16.5c-2.33,0-4.32-1.45-5.12-3.5h1.16 c0.67,1.4,2.15,2.4,3.96,2.4s3.29-1,3.96-2.4h1.16C16.32,15.05,14.33,16.5,12,16.5z"/>
</svg>